<svg xmlns="http://www.w3.org/2000/svg" version="1.1" xmlns:xlink="http://www.w3.org/1999/xlink" xmlns:svgjs="http://svgjs.dev/svgjs" width="1000" height="1000" viewBox="0 0 1000 1000"><rect width="1000" height="1000" fill="#ffffff"></rect><g transform="matrix(0.7,0,0,0.7,149.57575757575756,252.55040021208154)"><svg viewBox="0 0 396 280" data-background-color="#ffffff" preserveAspectRatio="xMidYMid meet" height="707" width="1000" xmlns="http://www.w3.org/2000/svg" xmlns:xlink="http://www.w3.org/1999/xlink"><g id="tight-bounds" transform="matrix(1,0,0,1,0.2400000000000091,-0.0002264283346846696)"><svg viewBox="0 0 395.52 280" height="280" width="395.52"><g><svg viewBox="0 0 395.52 280" height="280" width="395.52"><g><svg viewBox="0 0 395.52 280" height="280" width="395.52"><g><svg viewBox="0 0 395.52 280" height="280" width="395.52"><g><svg viewBox="0 0 395.52 280" height="280" width="395.52"><g transform="matrix(1,0,0,1,81.22880246045696,47.293586941235716)"><svg viewBox="0 0 233.06239507908606 185.41282611752857" height="185.41282611752857" width="233.06239507908606"><g><circle r="82" cx="116.53119753954303" cy="92.70641305876428" fill="#f59e0b" data-fill-palette-color="accent"></circle><svg xmlns="http://www.w3.org/2000/svg" xmlns:xlink="http://www.w3.org/1999/xlink" xml:space="preserve" style="shape-rendering:geometricPrecision;text-rendering:geometricPrecision;image-rendering:optimizeQuality;" viewBox="0.0000020265579223632812 0.0000027120113372802734 14.727499008178711 7.38195276260376" x="34.95935926186291" y="34.95935926186291" fill-rule="evenodd" clip-rule="evenodd" width="163.14367655536023" height="115.49410759380275" class="icon-o-0" data-fill-palette-color="quaternary" id="o-0"><g fill="#ffffff" data-fill-palette-color="quaternary"><path class="" d="M1.757 3.091c-0.313 0.444-0.296 1.331-0.417 1.95-0.153 0.784-0.711 1.203-1.34 1.534 0.188-0.771 0.348-1.542 0.412-2.313 0.078-0.953-0.06-0.891 0.767-1.575 1.159-0.961 3.04-1.741 5.848-2.29 2.456-0.406 5.049-0.453 7.701-0.351-0.89 1.809-3.733 1.961-7.203 1.581-1.811 0.02-3.495-0.488-5.768 1.464z m8.33 2.781c-3.895 2.038-7.803-2.284-9.165 0.688 2.104-1.831 5.079 3.183 9.165-0.688z m2.489-2.547c-4.49 2.72-9.502-0.792-10.907 1.859 3.412-1.235 7.765 2.753 10.907-1.859z m0.834-1.478c-3.944 1.761-10.043-1.402-11.565 2.239 3.106-1.808 8.446 1.438 11.565-2.239z" fill="#ffffff" data-fill-palette-color="quaternary"></path></g></svg></g></svg></g><path d="M87.102 109.281C86.903 109.827 86.705 110.207 86.509 110.421 86.315 110.629 86.117 110.695 85.914 110.621V110.621C85.816 110.586 85.662 110.491 85.454 110.339V110.339L64.542 92.886C64.192 92.606 64.17 92.045 64.477 91.204V91.204L64.866 90.135C65.171 89.3 65.548 88.885 65.999 88.889V88.889L93.252 89.006C93.43 88.995 93.602 89.019 93.767 89.08V89.08C94.179 89.23 94.198 89.817 93.824 90.843V90.843L93.71 91.156C93.401 92.003 93.027 92.427 92.589 92.427V92.427L85.796 92.371 81.874 103.128 87.123 107.421C87.465 107.684 87.48 108.243 87.169 109.097V109.097ZM79.462 101.101L82.652 92.352 70.36 92.211C70.019 92.212 69.642 92.176 69.231 92.102 68.825 92.031 68.432 91.957 68.049 91.88V91.88L68.019 91.963C68.88 92.464 69.528 92.909 69.963 93.298V93.298ZM105.413 71.647C105.165 71.966 104.907 72.143 104.641 72.176 104.375 72.209 104.085 72.103 103.77 71.858V71.858L83.775 56.292C83.316 55.934 83.41 55.34 84.056 54.51V54.51L84.243 54.27C84.881 53.451 85.43 53.219 85.889 53.577V53.577L104.468 68.041 111.05 59.587C111.223 59.365 111.418 59.264 111.634 59.283 111.851 59.303 112.122 59.439 112.447 59.692V59.692L112.942 60.078C113.256 60.322 113.452 60.55 113.529 60.759 113.607 60.968 113.559 61.184 113.386 61.405V61.405ZM129.635 48.021C129.165 48.316 128.786 48.469 128.5 48.48 128.216 48.496 127.996 48.379 127.84 48.13V48.13L114.157 26.36C113.847 25.868 114.138 25.342 115.029 24.782V24.782L116.199 24.046C116.929 23.587 117.52 23.501 117.971 23.789V23.789L131.01 30.681 133.174 32.227 132.839 29.797 132.172 14.864C132.125 14.322 132.455 13.829 133.163 13.383V13.383L134.259 12.695C135.139 12.142 135.733 12.112 136.043 12.604V12.604L149.726 34.374C150.032 34.861 149.745 35.381 148.865 35.934V35.934L148.641 36.075C148.171 36.37 147.792 36.523 147.506 36.534 147.222 36.55 147.003 36.433 146.846 36.184V36.184L135.683 18.423 135.718 18.609 136.331 34.155C136.333 34.355 136.302 34.525 136.236 34.667 136.167 34.803 136.044 34.926 135.867 35.038V35.038L134.556 35.862C134.218 36.074 133.881 36.09 133.543 35.908V35.908L119.433 28.381 130.712 46.325C131.018 46.812 130.734 47.33 129.859 47.88V47.88ZM192.854 31.506C192.667 31.534 190.536 31.083 186.463 30.151 182.391 29.227 179.909 28.66 179.018 28.451V28.451C177.851 28.158 177.069 27.975 176.675 27.903V27.903C174.104 27.287 172.049 25.981 170.512 23.986 168.974 21.991 167.946 19.275 167.426 15.837V15.837C166.743 11.314 167.235 7.723 168.902 5.065 170.568 2.401 173.33 0.778 177.188 0.195V0.195C181.065-0.391 184.196 0.345 186.583 2.404 188.968 4.456 190.502 7.737 191.183 12.247V12.247C191.734 15.892 191.519 18.928 190.537 21.357 189.551 23.793 187.852 25.54 185.44 26.598V26.598L185.464 26.753 193.417 28.01C193.787 28.053 193.993 28.214 194.035 28.492V28.492C194.063 28.679 194.035 29.017 193.95 29.506 193.858 29.989 193.717 30.433 193.527 30.839 193.337 31.244 193.113 31.467 192.854 31.506ZM180.912 24.844C183.6 24.437 185.534 23.193 186.713 21.112 187.893 19.036 188.22 16.257 187.694 12.774V12.774C187.342 10.448 186.714 8.517 185.807 6.982 184.909 5.452 183.765 4.359 182.377 3.703 180.996 3.046 179.413 2.852 177.63 3.122V3.122C175.872 3.388 174.431 4.038 173.305 5.074 172.186 6.109 171.42 7.491 171.006 9.219 170.594 10.953 170.564 12.983 170.916 15.31V15.31C171.444 18.806 172.575 21.371 174.309 23.006 176.042 24.634 178.243 25.247 180.912 24.844ZM223.777 29.924C221.563 29.432 219.754 28.668 218.351 27.633 216.949 26.591 215.995 25.328 215.488 23.843 214.983 22.351 214.933 20.693 215.339 18.869V18.869L219.195 1.53C219.322 0.962 219.892 0.791 220.906 1.016V1.016L221.203 1.082C222.217 1.308 222.661 1.705 222.535 2.272V2.272L218.651 19.736C218.403 20.852 218.488 21.912 218.908 22.916 219.327 23.92 220.019 24.783 220.983 25.507 221.947 26.23 223.092 26.739 224.419 27.034V27.034C225.759 27.332 227.019 27.355 228.2 27.102 229.375 26.847 230.362 26.354 231.161 25.621 231.961 24.882 232.483 23.964 232.727 22.866V22.866L236.611 5.403C236.737 4.835 237.308 4.664 238.322 4.89V4.89L238.647 4.962C239.642 5.183 240.077 5.578 239.951 6.146V6.146L236.095 23.485C235.689 25.309 234.941 26.79 233.851 27.927 232.763 29.057 231.363 29.797 229.652 30.146 227.942 30.489 225.984 30.415 223.777 29.924ZM254.902 42.54C254.561 42.321 254.362 42.081 254.305 41.819 254.249 41.557 254.328 41.258 254.544 40.923V40.923L268.042 19.942C268.261 19.601 268.5 19.405 268.758 19.353 269.016 19.302 269.316 19.386 269.657 19.605V19.605L281.091 26.961C281.328 27.114 281.45 27.297 281.459 27.513 281.468 27.728 281.36 28.012 281.133 28.364V28.364L280.789 28.9C280.573 29.235 280.362 29.449 280.155 29.541 279.948 29.633 279.726 29.603 279.49 29.451V29.451L269.959 23.32 265.154 30.789 273.703 36.289C273.94 36.441 274.059 36.631 274.061 36.857 274.063 37.084 273.954 37.367 273.735 37.708V37.708L273.411 38.211C273.192 38.552 272.981 38.766 272.777 38.852 272.574 38.939 272.354 38.906 272.118 38.754V38.754L263.568 33.254 258.408 41.276 267.971 47.428C268.207 47.58 268.328 47.767 268.334 47.988 268.339 48.209 268.231 48.493 268.008 48.839V48.839L267.668 49.367C267.453 49.702 267.241 49.916 267.034 50.008 266.827 50.1 266.606 50.07 266.369 49.918V49.918ZM285.171 69.91C284.277 68.784 283.569 67.639 283.047 66.477 282.525 65.314 282.21 64.308 282.103 63.459 281.992 62.604 282.08 62.063 282.366 61.835V61.835C282.525 61.709 282.788 61.605 283.156 61.521 283.523 61.447 283.88 61.414 284.228 61.421 284.567 61.428 284.777 61.482 284.858 61.585V61.585C284.931 61.677 285 61.952 285.063 62.411V62.411C285.255 63.41 285.512 64.353 285.833 65.241 286.145 66.128 286.697 67.071 287.49 68.069V68.069C288.107 68.847 288.804 69.42 289.58 69.789 290.361 70.162 291.156 70.303 291.967 70.21 292.778 70.117 293.539 69.788 294.251 69.223V69.223C295.008 68.622 295.473 67.919 295.644 67.116 295.82 66.317 295.824 65.513 295.656 64.703 295.489 63.893 295.186 62.765 294.748 61.319V61.319C294.266 59.766 293.946 58.485 293.787 57.476 293.633 56.472 293.741 55.426 294.113 54.339 294.479 53.255 295.287 52.218 296.536 51.226V51.226C297.621 50.365 298.82 49.873 300.132 49.749 301.44 49.62 302.743 49.879 304.04 50.526 305.342 51.178 306.524 52.172 307.584 53.508V53.508C308.067 54.117 308.536 54.876 308.99 55.784 309.439 56.696 309.741 57.545 309.897 58.33 310.049 59.111 309.954 59.637 309.611 59.909V59.909C309.463 60.027 309.214 60.129 308.864 60.214 308.506 60.299 308.161 60.343 307.83 60.347 307.496 60.345 307.294 60.301 307.225 60.214V60.214C307.139 60.107 307.059 59.832 306.984 59.391V59.391C306.85 58.655 306.669 57.969 306.44 57.333 306.205 56.701 305.801 56.025 305.229 55.303V55.303C304.29 54.12 303.228 53.407 302.042 53.164 300.861 52.917 299.728 53.224 298.642 54.085V54.085C297.987 54.605 297.575 55.195 297.406 55.855 297.243 56.51 297.228 57.185 297.362 57.88 297.501 58.57 297.754 59.488 298.12 60.632V60.632C298.154 60.697 298.214 60.867 298.299 61.141V61.141C298.796 62.724 299.131 64.077 299.304 65.199 299.472 66.326 299.36 67.487 298.966 68.684 298.573 69.881 297.736 70.987 296.457 72.003V72.003C295.254 72.958 293.988 73.512 292.658 73.666 291.32 73.819 290.006 73.573 288.717 72.927 287.434 72.277 286.252 71.271 285.171 69.91ZM302.35 101.141C302.166 100.638 302.099 100.245 302.149 99.962 302.193 99.682 302.353 99.491 302.63 99.391V99.391L324.722 91.331 322.152 84.286C322.056 84.022 322.077 83.802 322.214 83.627 322.354 83.457 322.612 83.304 322.986 83.168V83.168L323.585 82.949C323.965 82.81 324.261 82.762 324.471 82.804 324.683 82.851 324.837 83.007 324.933 83.271V83.271L331.199 100.446C331.293 100.704 331.274 100.92 331.143 101.093 331.011 101.266 330.755 101.422 330.374 101.561V101.561L329.776 101.779C329.401 101.916 329.105 101.962 328.887 101.916 328.668 101.87 328.512 101.719 328.418 101.461V101.461L325.902 94.563 303.809 102.623C303.269 102.82 302.818 102.424 302.457 101.436V101.436ZM67.668 177.574C67.466 177.021 67.373 176.603 67.388 176.319 67.4 176.03 67.511 175.847 67.72 175.77V175.77C67.812 175.737 67.988 175.714 68.248 175.703V175.703L95.575 175.581C96.026 175.577 96.403 175.992 96.708 176.827V176.827L97.101 177.904C97.408 178.746 97.387 179.306 97.037 179.587V179.587L76.039 197.111C75.917 197.232 75.773 197.323 75.607 197.384V197.384C75.189 197.536 74.792 197.096 74.416 196.065V196.065L74.302 195.752C73.99 194.899 74.003 194.334 74.341 194.058V194.058L79.586 189.702 75.651 178.918 68.85 179.01C68.418 179.029 68.047 178.611 67.735 177.758V177.758ZM78.811 178.913L82.017 187.698 91.543 179.86C91.804 179.639 92.115 179.425 92.477 179.216 92.839 179.008 93.188 178.811 93.524 178.625V178.625L93.494 178.543C92.512 178.713 91.729 178.787 91.143 178.764V178.764ZM89.202 220.741C88.949 220.416 88.839 220.12 88.872 219.854 88.905 219.589 89.079 219.333 89.393 219.088V219.088L109.457 203.465C109.916 203.108 110.468 203.344 111.115 204.175V204.175L111.307 204.422C111.946 205.242 112.036 205.831 111.577 206.188V206.188L92.936 220.703 99.543 229.187C99.716 229.409 99.766 229.623 99.694 229.828 99.622 230.033 99.424 230.262 99.099 230.515V230.515L98.596 230.907C98.281 231.151 98.013 231.286 97.791 231.309 97.57 231.333 97.372 231.234 97.2 231.012V231.012ZM118.609 249.238C118.133 248.939 117.829 248.662 117.695 248.408 117.558 248.16 117.567 247.911 117.724 247.662V247.662L131.454 225.818C131.764 225.326 132.367 225.361 133.263 225.924V225.924L134.433 226.66C135.163 227.119 135.5 227.616 135.441 228.151V228.151L134.876 242.94 134.421 245.56 136.471 244.197 149.683 237.102C150.157 236.829 150.747 236.914 151.455 237.359V237.359L152.551 238.048C153.431 238.601 153.716 239.124 153.406 239.616V239.616L139.676 261.46C139.37 261.947 138.777 261.914 137.897 261.361V261.361L137.673 261.221C137.203 260.925 136.901 260.65 136.767 260.396 136.624 260.144 136.631 259.894 136.788 259.645V259.645L147.988 241.826 147.844 241.944 134.047 249.25C133.87 249.347 133.706 249.394 133.553 249.391 133.395 249.385 133.231 249.327 133.059 249.22V249.22L131.739 248.39C131.402 248.178 131.242 247.88 131.259 247.497V247.497L131.927 231.476 120.612 249.478C120.306 249.965 119.71 249.93 118.825 249.373V249.373ZM188.114 279.994C187.927 279.965 186.018 278.904 182.389 276.809 178.76 274.708 176.551 273.429 175.761 272.973V272.973C174.732 272.342 174.037 271.933 173.676 271.746V271.746C171.395 270.391 169.812 268.529 168.927 266.162 168.048 263.801 167.868 260.896 168.389 257.445V257.445C169.075 252.902 170.611 249.605 172.996 247.553 175.382 245.494 178.511 244.757 182.381 245.341V245.341C186.265 245.928 189.049 247.561 190.733 250.241 192.41 252.919 192.907 256.521 192.225 261.044V261.044C191.673 264.695 190.566 267.542 188.903 269.584 187.234 271.619 185.088 272.789 182.464 273.093V273.093L182.441 273.248 189.685 276.81C190.033 276.962 190.185 277.177 190.143 277.455V277.455C190.115 277.642 189.988 277.957 189.763 278.398 189.531 278.839 189.265 279.225 188.963 279.557 188.662 279.888 188.379 280.034 188.114 279.994ZM178.648 270.068C181.343 270.475 183.564 269.859 185.312 268.219 187.061 266.573 188.198 264.005 188.725 260.516V260.516C189.079 258.176 189.049 256.14 188.637 254.405 188.219 252.663 187.444 251.274 186.312 250.237 185.179 249.2 183.721 248.547 181.938 248.278V248.278C180.167 248.011 178.591 248.206 177.21 248.863 175.828 249.52 174.684 250.62 173.777 252.162 172.871 253.697 172.242 255.634 171.889 257.974V257.974C171.359 261.482 171.684 264.274 172.865 266.35 174.038 268.424 175.966 269.663 178.648 270.068ZM228.35 270.308C226.13 270.802 224.165 270.878 222.455 270.535 220.737 270.188 219.333 269.443 218.242 268.299 217.145 267.164 216.394 265.681 215.986 263.85V263.85L212.116 246.454C211.989 245.886 212.433 245.49 213.448 245.264V245.264L213.754 245.196C214.768 244.97 215.338 245.141 215.465 245.709V245.709L219.363 263.229C219.611 264.346 220.142 265.272 220.955 266.008 221.762 266.746 222.756 267.238 223.935 267.485 225.123 267.736 226.38 267.714 227.707 267.419V267.419C229.053 267.119 230.206 266.601 231.167 265.865 232.136 265.134 232.826 264.264 233.238 263.256 233.649 262.247 233.732 261.191 233.487 260.087V260.087L229.588 242.566C229.462 241.999 229.909 241.601 230.93 241.374V241.374L231.246 241.304C232.247 241.081 232.811 241.253 232.937 241.821V241.821L236.808 259.217C237.215 261.048 237.167 262.709 236.662 264.201 236.152 265.7 235.196 266.971 233.794 268.012 232.384 269.049 230.569 269.815 228.35 270.308ZM266.02 254.5C265.673 254.723 265.369 254.806 265.107 254.749 264.845 254.692 264.607 254.496 264.391 254.161V254.161L250.85 233.114C250.627 232.767 250.546 232.466 250.606 232.21 250.667 231.953 250.87 231.714 251.216 231.491V231.491L262.684 224.113C262.92 223.961 263.138 223.926 263.338 224.007 263.538 224.088 263.753 224.307 263.983 224.665V224.665L264.328 225.2C264.543 225.536 264.65 225.817 264.648 226.043 264.646 226.27 264.527 226.459 264.291 226.611V226.611L254.728 232.764 259.544 240.249 268.126 234.728C268.362 234.576 268.586 234.549 268.796 234.646 269.003 234.738 269.218 234.958 269.441 235.304V235.304L269.759 235.799C269.982 236.145 270.09 236.429 270.085 236.65 270.08 236.871 269.959 237.057 269.722 237.209V237.209L261.14 242.731 266.317 250.777 275.921 244.598C276.152 244.449 276.369 244.418 276.573 244.505 276.776 244.592 276.989 244.808 277.212 245.155V245.155L277.557 245.69C277.772 246.026 277.879 246.307 277.877 246.533 277.875 246.76 277.759 246.947 277.528 247.096V247.096ZM301.597 222.902C300.703 224.028 299.747 224.98 298.729 225.757 297.716 226.529 296.803 227.069 295.992 227.376 295.179 227.674 294.63 227.709 294.343 227.482V227.482C294.185 227.356 294.025 227.121 293.865 226.776 293.704 226.432 293.588 226.094 293.518 225.763 293.451 225.426 293.459 225.207 293.54 225.104V225.104C293.613 225.012 293.866 224.883 294.298 224.717V224.717C295.226 224.294 296.089 223.828 296.886 223.317 297.688 222.811 298.486 222.059 299.278 221.061V221.061C299.896 220.283 300.296 219.47 300.477 218.621 300.664 217.776 300.617 216.967 300.338 216.195 300.064 215.426 299.571 214.76 298.859 214.195V214.195C298.102 213.593 297.312 213.296 296.489 213.302 295.662 213.313 294.874 213.492 294.123 213.839 293.372 214.186 292.34 214.739 291.027 215.499V215.499C289.62 216.326 288.443 216.931 287.496 217.314 286.544 217.693 285.496 217.825 284.353 217.71 283.209 217.595 282.01 217.04 280.756 216.044V216.044C279.666 215.179 278.912 214.121 278.494 212.871 278.071 211.617 278.027 210.285 278.363 208.874 278.703 207.458 279.407 206.077 280.476 204.731V204.731C280.959 204.122 281.594 203.496 282.381 202.852 283.166 202.199 283.924 201.707 284.653 201.377 285.383 201.046 285.922 201.019 286.27 201.296V201.296C286.418 201.414 286.572 201.636 286.73 201.962 286.894 202.292 287.015 202.617 287.093 202.939 287.172 203.26 287.175 203.466 287.102 203.559V203.559C287.021 203.661 286.772 203.801 286.355 203.979V203.979C285.668 204.277 285.039 204.612 284.468 204.984 283.906 205.356 283.336 205.905 282.759 206.632V206.632C281.821 207.814 281.367 209.011 281.399 210.221 281.427 211.436 281.986 212.477 283.077 213.343V213.343C283.732 213.863 284.4 214.13 285.08 214.145 285.761 214.16 286.422 214.021 287.063 213.729 287.713 213.436 288.554 212.981 289.586 212.365V212.365C289.645 212.311 289.796 212.215 290.041 212.075V212.075C291.479 211.231 292.725 210.597 293.778 210.174 294.836 209.745 295.995 209.589 297.255 209.704 298.514 209.811 299.788 210.376 301.078 211.4V211.4C302.281 212.355 303.109 213.467 303.561 214.736 304.014 216.005 304.072 217.34 303.735 218.742 303.395 220.149 302.682 221.535 301.597 222.902ZM321.774 185.735C321.588 186.244 321.385 186.591 321.164 186.775 320.95 186.961 320.705 187.004 320.429 186.903V186.903L298.265 178.81 295.683 185.882C295.588 186.14 295.432 186.292 295.214 186.337 294.995 186.383 294.699 186.337 294.325 186.2V186.2L293.726 185.982C293.339 185.84 293.08 185.683 292.949 185.51 292.817 185.337 292.798 185.121 292.893 184.863V184.863L299.183 167.635C299.28 167.371 299.434 167.215 299.646 167.167 299.858 167.119 300.158 167.166 300.545 167.307V167.307L301.143 167.526C301.518 167.663 301.774 167.819 301.911 167.994 302.049 168.17 302.07 168.389 301.973 168.653V168.653L299.448 175.569 321.612 183.662C322.153 183.859 322.241 184.455 321.878 185.449V185.449ZM69.466 139.878C69.466 138.135 70.879 136.722 72.622 136.722 74.365 136.722 75.777 138.135 75.777 139.878 75.777 141.621 74.365 143.033 72.622 143.033 70.879 143.033 69.466 141.621 69.466 139.878ZM316.503 139.878C316.503 138.135 317.915 136.722 319.658 136.722 321.401 136.722 322.814 138.135 322.814 139.878 322.814 141.621 321.401 143.033 319.658 143.033 317.915 143.033 316.503 141.621 316.503 139.878Z" fill="#ffc35b" data-fill-palette-color="primary"></path></svg></g></svg></g></svg></g><g></g></svg></g><defs></defs></svg><rect width="395.52" height="280" fill="none" stroke="none" visibility="hidden"></rect></g></svg></g></svg>